<mxfile host="app.diagrams.net" agent="Mozilla/5.0 (Windows NT 10.0; Win64; x64) AppleWebKit/537.36 (KHTML, like Gecko) Chrome/136.0.0.0 Safari/537.36 Edg/136.0.0.0" version="27.0.9">
  <diagram name="Página-1" id="OEObVhDZDo-sjFr-N30s">
    <mxGraphModel dx="994" dy="570" grid="1" gridSize="10" guides="1" tooltips="1" connect="1" arrows="1" fold="1" page="1" pageScale="1" pageWidth="827" pageHeight="1169" math="0" shadow="0">
      <root>
        <mxCell id="0" />
        <mxCell id="1" parent="0" />
        <mxCell id="TAEOf685U3WrebRK_MDq-1" value="&lt;font style=&quot;font-size: 24px;&quot;&gt;&lt;b&gt;DIAGRAMA DE SEQUÊNCIA DO SISTEMA&lt;/b&gt;&lt;/font&gt;" style="text;html=1;align=center;verticalAlign=middle;resizable=0;points=[];autosize=1;strokeColor=none;fillColor=none;" vertex="1" parent="1">
          <mxGeometry x="180" y="60" width="500" height="40" as="geometry" />
        </mxCell>
        <mxCell id="TAEOf685U3WrebRK_MDq-2" value="Usuario" style="shape=umlLifeline;perimeter=lifelinePerimeter;whiteSpace=wrap;container=1;dropTarget=0;collapsible=0;recursiveResize=0;outlineConnect=0;portConstraint=eastwest;newEdgeStyle={&quot;edgeStyle&quot;:&quot;elbowEdgeStyle&quot;,&quot;elbow&quot;:&quot;vertical&quot;,&quot;curved&quot;:0,&quot;rounded&quot;:0};participant=umlActor;verticalAlign=bottom;labelPosition=center;verticalLabelPosition=top;align=center;size=65;" vertex="1" parent="1">
          <mxGeometry x="214.5" y="140" width="35" height="680" as="geometry" />
        </mxCell>
        <mxCell id="TAEOf685U3WrebRK_MDq-3" value="Sistema" style="shape=umlLifeline;perimeter=lifelinePerimeter;whiteSpace=wrap;container=1;dropTarget=0;collapsible=0;recursiveResize=0;outlineConnect=0;portConstraint=eastwest;newEdgeStyle={&quot;edgeStyle&quot;:&quot;elbowEdgeStyle&quot;,&quot;elbow&quot;:&quot;vertical&quot;,&quot;curved&quot;:0,&quot;rounded&quot;:0};size=65;" vertex="1" parent="1">
          <mxGeometry x="495.5" y="140" width="150" height="680" as="geometry" />
        </mxCell>
        <mxCell id="TAEOf685U3WrebRK_MDq-4" value="Abrir lista de personagens" style="verticalAlign=bottom;edgeStyle=elbowEdgeStyle;elbow=vertical;curved=0;rounded=0;endArrow=block;" edge="1" parent="1" source="TAEOf685U3WrebRK_MDq-2" target="TAEOf685U3WrebRK_MDq-3">
          <mxGeometry x="0.0015" relative="1" as="geometry">
            <Array as="points">
              <mxPoint x="438.5" y="247" />
            </Array>
            <mxPoint as="offset" />
          </mxGeometry>
        </mxCell>
        <mxCell id="TAEOf685U3WrebRK_MDq-5" value="Exibe lista de personagens" style="verticalAlign=bottom;edgeStyle=elbowEdgeStyle;elbow=vertical;curved=0;rounded=0;dashed=1;dashPattern=2 3;endArrow=block;" edge="1" parent="1" source="TAEOf685U3WrebRK_MDq-3" target="TAEOf685U3WrebRK_MDq-2">
          <mxGeometry relative="1" as="geometry">
            <Array as="points">
              <mxPoint x="441.5" y="299" />
            </Array>
          </mxGeometry>
        </mxCell>
        <mxCell id="TAEOf685U3WrebRK_MDq-6" value="Selecionar personagens" style="verticalAlign=bottom;edgeStyle=elbowEdgeStyle;elbow=vertical;curved=0;rounded=0;endArrow=block;" edge="1" parent="1" source="TAEOf685U3WrebRK_MDq-2" target="TAEOf685U3WrebRK_MDq-3">
          <mxGeometry relative="1" as="geometry">
            <Array as="points">
              <mxPoint x="438.5" y="351" />
            </Array>
          </mxGeometry>
        </mxCell>
        <mxCell id="TAEOf685U3WrebRK_MDq-7" value="Adiciona personagens ao grupo" style="verticalAlign=bottom;edgeStyle=elbowEdgeStyle;elbow=vertical;curved=0;rounded=0;dashed=1;dashPattern=2 3;endArrow=block;" edge="1" parent="1" source="TAEOf685U3WrebRK_MDq-3" target="TAEOf685U3WrebRK_MDq-2">
          <mxGeometry relative="1" as="geometry">
            <Array as="points">
              <mxPoint x="441.5" y="403" />
            </Array>
          </mxGeometry>
        </mxCell>
        <mxCell id="TAEOf685U3WrebRK_MDq-8" value="Criar batalha" style="verticalAlign=bottom;edgeStyle=elbowEdgeStyle;elbow=vertical;curved=0;rounded=0;endArrow=block;" edge="1" parent="1" source="TAEOf685U3WrebRK_MDq-2" target="TAEOf685U3WrebRK_MDq-3">
          <mxGeometry relative="1" as="geometry">
            <Array as="points">
              <mxPoint x="438.5" y="455" />
            </Array>
          </mxGeometry>
        </mxCell>
        <mxCell id="TAEOf685U3WrebRK_MDq-9" value="Batalha criada com sucesso" style="verticalAlign=bottom;edgeStyle=elbowEdgeStyle;elbow=vertical;curved=0;rounded=0;dashed=1;dashPattern=2 3;endArrow=block;" edge="1" parent="1" source="TAEOf685U3WrebRK_MDq-3" target="TAEOf685U3WrebRK_MDq-2">
          <mxGeometry relative="1" as="geometry">
            <Array as="points">
              <mxPoint x="441.5" y="507" />
            </Array>
          </mxGeometry>
        </mxCell>
        <mxCell id="TAEOf685U3WrebRK_MDq-10" value="Excluir personagens do grupo" style="verticalAlign=bottom;edgeStyle=elbowEdgeStyle;elbow=vertical;curved=0;rounded=0;endArrow=block;" edge="1" parent="1" source="TAEOf685U3WrebRK_MDq-2" target="TAEOf685U3WrebRK_MDq-3">
          <mxGeometry relative="1" as="geometry">
            <Array as="points">
              <mxPoint x="438.5" y="559" />
            </Array>
          </mxGeometry>
        </mxCell>
        <mxCell id="TAEOf685U3WrebRK_MDq-11" value="Personagem removido" style="verticalAlign=bottom;edgeStyle=elbowEdgeStyle;elbow=vertical;curved=0;rounded=0;dashed=1;dashPattern=2 3;endArrow=block;" edge="1" parent="1" source="TAEOf685U3WrebRK_MDq-3" target="TAEOf685U3WrebRK_MDq-2">
          <mxGeometry relative="1" as="geometry">
            <Array as="points">
              <mxPoint x="441.5" y="611" />
            </Array>
          </mxGeometry>
        </mxCell>
        <mxCell id="TAEOf685U3WrebRK_MDq-12" value="Excluir personagem do sistema" style="verticalAlign=bottom;edgeStyle=elbowEdgeStyle;elbow=vertical;curved=0;rounded=0;endArrow=block;" edge="1" parent="1" source="TAEOf685U3WrebRK_MDq-2" target="TAEOf685U3WrebRK_MDq-3">
          <mxGeometry relative="1" as="geometry">
            <Array as="points">
              <mxPoint x="438.5" y="663" />
            </Array>
          </mxGeometry>
        </mxCell>
        <mxCell id="TAEOf685U3WrebRK_MDq-13" value="Personagem excluído com sucesso" style="verticalAlign=bottom;edgeStyle=elbowEdgeStyle;elbow=vertical;curved=0;rounded=0;dashed=1;dashPattern=2 3;endArrow=block;" edge="1" parent="1" source="TAEOf685U3WrebRK_MDq-3" target="TAEOf685U3WrebRK_MDq-2">
          <mxGeometry relative="1" as="geometry">
            <Array as="points">
              <mxPoint x="441.5" y="715" />
            </Array>
          </mxGeometry>
        </mxCell>
      </root>
    </mxGraphModel>
  </diagram>
</mxfile>
